<svg width="931" height="931" viewBox="0 0 931 931" fill="none" xmlns="http://www.w3.org/2000/svg">
<path d="M658.25 609.744H690.375V641.87H658.25V609.744Z" fill="#BE8038"/>
<path d="M722.5 513.367H754.625V545.493H722.5V513.367Z" fill="#BE8038"/>
<path d="M529.75 320.614H561.875V352.739H529.75V320.614Z" fill="#BE8038"/>
<path d="M112.125 96.3768H144.25V128.502H112.125V96.3768Z" fill="#9D8181"/>
<path d="M80 96.3768H112.125V128.502H80V96.3768Z" fill="#9D8181"/>
<path d="M112.125 64.2512H144.25V96.3768H112.125V64.2512Z" fill="#BE8038"/>
<path d="M401.25 96.3768H433.375V128.502H401.25V96.3768Z" fill="#BE8038"/>
<path d="M337 64.2512H369.125V96.3768H337V64.2512Z" fill="#BE8038"/>
<path d="M401.25 64.2512H433.375V96.3768H401.25V64.2512Z" fill="#BE8038"/>
<path d="M337 32.1256H369.125V64.2512H337V32.1256Z" fill="#BE8038"/>
<path d="M272.75 0H304.875V32.1256H272.75V0Z" fill="#BE8038"/>
<path d="M594 577.618H626.125V609.744H594V577.618Z" fill="#BE8038"/>
<path d="M594 481.242H626.125V513.367H594V481.242Z" fill="#BE8038"/>
<path d="M176.375 96.3768H208.5V128.502H176.375V96.3768Z" fill="#957979"/>
<path d="M80 128.502H112.125V160.628H80V128.502Z" fill="#AC9393"/>
<path d="M369.125 416.99H401.25V449.116H369.125V416.99Z" fill="#957979"/>
<path d="M337 416.99H369.125V449.116H337V416.99Z" fill="#AC9393"/>
<path d="M369.125 160.628H401.25V192.754H369.125V160.628Z" fill="#CE8C41"/>
<path d="M272.75 192.754H304.875V224.879H272.75V192.754Z" fill="#957979"/>
<path d="M240.625 224.879H272.75V257.005H240.625V224.879Z" fill="#957979"/>
<path d="M337 481.242H369.125V513.367H337V481.242Z" fill="#BEB1B1"/>
<path d="M594 673.995H626.125V706.121H594V673.995Z" fill="#BE8038"/>
<path d="M594 802.498H626.125V834.623H594V802.498Z" fill="#BE8038"/>
<path d="M658.25 609.744H690.375V641.87H658.25V609.744Z" fill="#BE8038"/>
<path d="M722.5 513.367H754.625V545.493H722.5V513.367Z" fill="#AF7028"/>
<path d="M529.75 320.614H561.875V352.739H529.75V320.614Z" fill="#BE8038"/>
<path d="M401.25 96.3768H433.375V128.502H401.25V96.3768Z" fill="#C68439"/>
<path d="M337 64.2512H369.125V96.3768H337V64.2512Z" fill="#C68439"/>
<path d="M337 96.3768H369.125V128.502H337V96.3768Z" fill="#C68439"/>
<path d="M401.25 64.2512H433.375V96.3768H401.25V64.2512Z" fill="#BE8038"/>
<path d="M337 32.1256H369.125V64.2512H337V32.1256Z" fill="#BE8038"/>
<path d="M272.75 0H304.875V32.1256H272.75V0Z" fill="#C68439"/>
<path d="M594 577.618H626.125V609.744H594V577.618Z" fill="#BE8038"/>
<path d="M594 481.242H626.125V513.367H594V481.242Z" fill="#AF7028"/>
<path d="M401.25 384.865H433.375V416.99H401.25V384.865Z" fill="#795E5E"/>
<path d="M594 673.995H626.125V706.121H594V673.995Z" fill="#BE8038"/>
<path d="M594 802.498H626.125V834.623H594V802.498Z" fill="#C68439"/>
<path d="M658.25 738.246H690.375V770.372H658.25V738.246Z" fill="#BE8038"/>
<path d="M722.5 641.87H754.625V673.995H722.5V641.87Z" fill="#BE8038"/>
<path d="M626.125 866.749H658.25V898.874H626.125V866.749Z" fill="#BE8038"/>
<path d="M626.125 609.744H658.25V641.87H626.125V609.744Z" fill="#BE8038"/>
<path d="M690.375 545.493H722.5V577.618H690.375V545.493Z" fill="#BE8038"/>
<path d="M754.625 416.99H786.75V449.116H754.625V416.99Z" fill="#BE8038"/>
<path d="M561.875 577.618H594V609.744H561.875V577.618Z" fill="#BE8038"/>
<path d="M561.875 481.242H594V513.367H561.875V481.242Z" fill="#BE8038"/>
<path d="M561.875 320.614H594V352.739H561.875V320.614Z" fill="#BE8038"/>
<path d="M144.25 96.3768H176.375V128.502H144.25V96.3768Z" fill="#957979"/>
<path d="M144.25 64.2512H176.375V96.3768H144.25V64.2512Z" fill="#795E5E"/>
<path d="M433.375 96.3768H465.5V128.502H433.375V96.3768Z" fill="#BE8038"/>
<path d="M369.125 64.2512H401.25V96.3768H369.125V64.2512Z" fill="#BE8038"/>
<path d="M433.375 64.2512H465.5V96.3768H433.375V64.2512Z" fill="#BE8038"/>
<path d="M369.125 32.1256H401.25V64.2512H369.125V32.1256Z" fill="#BE8038"/>
<path d="M304.875 0H337V32.1256H304.875V0Z" fill="#BE8038"/>
<path d="M626.125 609.744H658.25V641.87H626.125V609.744Z" fill="#AF7028"/>
<path d="M690.375 545.493H722.5V577.618H690.375V545.493Z" fill="#CE8C41"/>
<path d="M754.625 416.99H786.75V449.116H754.625V416.99Z" fill="#BE8038"/>
<path d="M561.875 481.242H594V513.367H561.875V481.242Z" fill="#C68439"/>
<path d="M561.875 320.614H594V352.739H561.875V320.614Z" fill="#AF7028"/>
<path d="M112.125 64.2512H144.25V96.3768H112.125V64.2512Z" fill="#795E5E"/>
<path d="M433.375 96.3768H465.5V128.502H433.375V96.3768Z" fill="#C68439"/>
<path d="M369.125 64.2512H401.25V96.3768H369.125V64.2512Z" fill="#C68439"/>
<path d="M433.375 64.2512H465.5V96.3768H433.375V64.2512Z" fill="#BE8038"/>
<path d="M369.125 32.1256H401.25V64.2512H369.125V32.1256Z" fill="#BE8038"/>
<path d="M304.875 0H337V32.1256H304.875V0Z" fill="#BE8038"/>
<path d="M626.125 738.246H658.25V770.372H626.125V738.246Z" fill="#C68439"/>
<path d="M690.375 673.995H722.5V706.121H690.375V673.995Z" fill="#BE8038"/>
<path d="M754.625 545.493H786.75V577.618H754.625V545.493Z" fill="#BE8038"/>
<path d="M722.5 449.116H754.625V481.242H722.5V449.116Z" fill="#CE8C41"/>
<path d="M658.25 641.87H690.375V673.995H658.25V641.87Z" fill="#BE8038"/>
<path d="M722.5 545.493H754.625V577.618H722.5V545.493Z" fill="#BE8038"/>
<path d="M594 706.121H626.125V738.246H594V706.121Z" fill="#BE8038"/>
<path d="M594 834.623H626.125V866.749H594V834.623Z" fill="#BE8038"/>
<path d="M658.25 641.87H690.375V673.995H658.25V641.87Z" fill="#BE8038"/>
<path d="M722.5 545.493H754.625V577.618H722.5V545.493Z" fill="#AF7028"/>
<path d="M594 706.121H626.125V738.246H594V706.121Z" fill="#BE8038"/>
<path d="M594 834.623H626.125V866.749H594V834.623Z" fill="#BE8038"/>
<path d="M658.25 770.372H690.375V802.498H658.25V770.372Z" fill="#AF6716"/>
<path d="M722.5 673.995H754.625V706.121H722.5V673.995Z" fill="#BE8038"/>
<path d="M626.125 898.874H658.25V931H626.125V898.874Z" fill="#AF7028"/>
<path d="M626.125 641.87H658.25V673.995H626.125V641.87Z" fill="#BE8038"/>
<path d="M690.375 577.618H722.5V609.744H690.375V577.618Z" fill="#BE8038"/>
<path d="M754.625 449.116H786.75V481.242H754.625V449.116Z" fill="#BE8038"/>
<path d="M626.125 641.87H658.25V673.995H626.125V641.87Z" fill="#AF7028"/>
<path d="M690.375 577.618H722.5V609.744H690.375V577.618Z" fill="#AF7028"/>
<path d="M754.625 449.116H786.75V481.242H754.625V449.116Z" fill="#AF7028"/>
<path d="M626.125 770.372H658.25V802.498H626.125V770.372Z" fill="#BE8038"/>
<path d="M690.375 706.121H722.5V738.246H690.375V706.121Z" fill="#BE8038"/>
<path d="M690.375 770.372H722.5V802.498H690.375V770.372Z" fill="#AF6716"/>
<path d="M754.625 577.618H786.75V609.744H754.625V577.618Z" fill="#C68439"/>
<path d="M722.5 706.121H754.625V738.246H722.5V706.121Z" fill="#BE8038"/>
<path d="M529.75 352.739H561.875V384.865H529.75V352.739Z" fill="#BE8038"/>
<path d="M112.125 128.502H144.25V160.628H112.125V128.502Z" fill="#AC9393"/>
<path d="M272.75 96.3768H304.875V128.502H272.75V96.3768Z" fill="#BE8038"/>
<path d="M401.25 416.99H433.375V449.116H401.25V416.99Z" fill="#957979"/>
<path d="M401.25 160.628H433.375V192.754H401.25V160.628Z" fill="#BE8038"/>
<path d="M465.5 159.986H497.625V192.111H465.5V159.986Z" fill="#C68439"/>
<path d="M304.875 192.754H337V224.879H304.875V192.754Z" fill="#BE8038"/>
<path d="M401.25 480.599H433.375V512.725H401.25V480.599Z" fill="#BE8038"/>
<path d="M529.75 416.99H561.875V449.116H529.75V416.99Z" fill="#BE8038"/>
<path d="M594 513.367H626.125V545.493H594V513.367Z" fill="#BE8038"/>
<path d="M176.375 128.502H208.5V160.628H176.375V128.502Z" fill="#BE8038"/>
<path d="M80 160.628H112.125V192.754H80V160.628Z" fill="#BE8038"/>
<path d="M369.125 449.116H401.25V481.242H369.125V449.116Z" fill="#BE8038"/>
<path d="M337 449.116H369.125V481.242H337V449.116Z" fill="#BE8038"/>
<path d="M272.75 224.879H304.875V257.005H272.75V224.879Z" fill="#957979"/>
<path d="M240.625 257.005H272.75V289.13H240.625V257.005Z" fill="#BEB1B1"/>
<path d="M465.5 95.7343H497.625V127.86H465.5V95.7343Z" fill="#BE8038"/>
<path d="M497.625 320.614H529.75V352.739H497.625V320.614Z" fill="#BE8038"/>
<path d="M529.75 159.986H561.875V192.111H529.75V159.986Z" fill="#BE8038"/>
<path d="M529.75 224.237H561.875V256.362H529.75V224.237Z" fill="#BE8038"/>
<path d="M594 609.744H626.125V641.87H594V609.744Z" fill="#BE8038"/>
<path d="M594 738.246H626.125V770.372H594V738.246Z" fill="#BE8038"/>
<path d="M722.5 706.121H754.625V738.246H722.5V706.121Z" fill="#AF7028"/>
<path d="M529.75 352.739H561.875V384.865H529.75V352.739Z" fill="#C68439"/>
<path d="M144.25 32.1256H176.375V64.2512H144.25V32.1256Z" fill="#CE8C41"/>
<path d="M272.75 96.3768H304.875V128.502H272.75V96.3768Z" fill="#957979"/>
<path d="M433.375 449.116H465.5V481.242H433.375V449.116Z" fill="#795E5E"/>
<path d="M401.25 160.628H433.375V192.754H401.25V160.628Z" fill="#CE8C41"/>
<path d="M304.875 192.754H337V224.879H304.875V192.754Z" fill="#795E5E"/>
<path d="M401.25 481.242H433.375V513.367H401.25V481.242Z" fill="#957979"/>
<path d="M529.75 416.99H561.875V449.116H529.75V416.99Z" fill="#C68439"/>
<path d="M594 513.367H626.125V545.493H594V513.367Z" fill="#AF7028"/>
<path d="M176.375 128.502H208.5V160.628H176.375V128.502Z" fill="#957979"/>
<path d="M80 160.628H112.125V192.754H80V160.628Z" fill="#AC9393"/>
<path d="M369.125 449.116H401.25V481.242H369.125V449.116Z" fill="#9D8181"/>
<path d="M337 449.116H369.125V481.242H337V449.116Z" fill="#AC9393"/>
<path d="M497.625 320.614H529.75V352.739H497.625V320.614Z" fill="#BE8038"/>
<path d="M529.75 159.986H561.875V192.111H529.75V159.986Z" fill="#BE8038"/>
<path d="M433.375 288.488H465.5V320.614H433.375V288.488Z" fill="#957979"/>
<path d="M529.75 224.237H561.875V256.362H529.75V224.237Z" fill="#BE8038"/>
<path d="M594 609.744H626.125V641.87H594V609.744Z" fill="#BE8038"/>
<path d="M594 738.246H626.125V770.372H594V738.246Z" fill="#BE8038"/>
<path d="M658.25 673.995H690.375V706.121H658.25V673.995Z" fill="#AF7028"/>
<path d="M722.5 577.618H754.625V609.744H722.5V577.618Z" fill="#BE8038"/>
<path d="M626.125 802.498H658.25V834.623H626.125V802.498Z" fill="#BE8038"/>
<path d="M690.375 738.246H722.5V770.372H690.375V738.246Z" fill="#BE8038"/>
<path d="M754.625 609.744H786.75V641.87H754.625V609.744Z" fill="#BE8038"/>
<path d="M786.75 384.865H818.875V416.99H786.75V384.865Z" fill="#BE8038"/>
<path d="M561.875 513.367H594V545.493H561.875V513.367Z" fill="#BE8038"/>
<path d="M561.875 352.739H594V384.865H561.875V352.739Z" fill="#BE8038"/>
<path d="M144.25 128.502H176.375V160.628H144.25V128.502Z" fill="#AC9393"/>
<path d="M144.25 160.628H176.375V192.754H144.25V160.628Z" fill="#AC9393"/>
<path d="M433.375 128.502H465.5V160.628H433.375V128.502Z" fill="#BE8038"/>
<path d="M465.5 320.614H497.625V352.739H465.5V320.614Z" fill="#BE8038"/>
<path d="M433.375 160.628H465.5V192.754H433.375V160.628Z" fill="#BE8038"/>
<path d="M497.625 159.986H529.75V192.111H497.625V159.986Z" fill="#BE8038"/>
<path d="M561.875 416.99H594V449.116H561.875V416.99Z" fill="#BE8038"/>
<path d="M626.125 802.498H658.25V834.623H626.125V802.498Z" fill="#C68439"/>
<path d="M690.375 738.246H722.5V770.372H690.375V738.246Z" fill="#AF7028"/>
<path d="M754.625 609.744H786.75V641.87H754.625V609.744Z" fill="#C68439"/>
<path d="M818.875 416.99H851V449.116H818.875V416.99Z" fill="#CE8C41"/>
<path d="M561.875 513.367H594V545.493H561.875V513.367Z" fill="#C68439"/>
<path d="M561.875 352.739H594V384.865H561.875V352.739Z" fill="#AF7028"/>
<path d="M337 0H369.125V32.1256H337V0Z" fill="#BE8038"/>
<path d="M433.375 128.502H465.5V160.628H433.375V128.502Z" fill="#CE8C41"/>
<path d="M304.875 96.3768H337V128.502H304.875V96.3768Z" fill="#795E5E"/>
<path d="M465.5 320.614H497.625V352.739H465.5V320.614Z" fill="#BE8038"/>
<path d="M433.375 160.628H465.5V192.754H433.375V160.628Z" fill="#CE8C41"/>
<path d="M337 192.111H369.125V224.237H337V192.111Z" fill="#CE8C41"/>
<path d="M369.125 192.111H401.25V224.237H369.125V192.111Z" fill="#CE8C41"/>
<path d="M401.25 288.488H433.375V320.614H401.25V288.488Z" fill="#9D8181"/>
<path d="M497.625 224.237H529.75V256.362H497.625V224.237Z" fill="#CE8C41"/>
<path d="M561.875 416.99H594V449.116H561.875V416.99Z" fill="#BE8038"/>
<path d="M626.125 673.995H658.25V706.121H626.125V673.995Z" fill="#C68439"/>
<path d="M690.375 609.744H722.5V641.87H690.375V609.744Z" fill="#AF7028"/>
<path d="M754.625 513.367H786.75V545.493H754.625V513.367Z" fill="#BE8038"/>
<path d="M658.25 577.618H690.375V609.744H658.25V577.618Z" fill="#BE8038"/>
<path d="M722.5 481.242H754.625V513.367H722.5V481.242Z" fill="#BE8038"/>
<path d="M529.75 384.865H561.875V416.99H529.75V384.865Z" fill="#BE8038"/>
<path d="M401.25 449.116H433.375V481.242H401.25V449.116Z" fill="#BE8038"/>
<path d="M304.875 224.879H337V257.005H304.875V224.879Z" fill="#BE8038"/>
<path d="M401.25 352.739H433.375V384.865H401.25V352.739Z" fill="#BE8038"/>
<path d="M465.5 256.362H497.625V288.488H465.5V256.362Z" fill="#CE8C41"/>
<path d="M529.75 288.488H561.875V320.614H529.75V288.488Z" fill="#BE8038"/>
<path d="M240.625 32.1256H272.75V64.2512H240.625V32.1256Z" fill="#BE8038"/>
<path d="M208.5 32.1256H240.625V64.2512H208.5V32.1256Z" fill="#BE8038"/>
<path d="M594 545.493H626.125V577.618H594V545.493Z" fill="#BE8038"/>
<path d="M433.375 416.99H465.5V449.116H433.375V416.99Z" fill="#795E5E"/>
<path d="M529.75 192.111H561.875V224.237H529.75V192.111Z" fill="#BE8038"/>
<path d="M465.5 352.739H497.625V384.865H465.5V352.739Z" fill="#BE8038"/>
<path d="M529.75 256.362H561.875V288.488H529.75V256.362Z" fill="#CE8C41"/>
<path d="M594 449.116H626.125V481.242H594V449.116Z" fill="#BE8038"/>
<path d="M240.625 0H272.75V32.1256H240.625V0Z" fill="#BE8038"/>
<path d="M176.375 32.1256H208.5V64.2512H176.375V32.1256Z" fill="#BE8038"/>
<path d="M594 641.87H626.125V673.995H594V641.87Z" fill="#BE8038"/>
<path d="M594 770.372H626.125V802.498H594V770.372Z" fill="#BE8038"/>
<path d="M658.25 577.618H690.375V609.744H658.25V577.618Z" fill="#CE8C41"/>
<path d="M722.5 481.242H754.625V513.367H722.5V481.242Z" fill="#CE8C41"/>
<path d="M529.75 384.865H561.875V416.99H529.75V384.865Z" fill="#C68439"/>
<path d="M465.5 127.86H497.625V159.986H465.5V127.86Z" fill="#C68439"/>
<path d="M272.75 128.502H304.875V160.628H272.75V128.502Z" fill="#9D8181"/>
<path d="M401.25 449.116H433.375V481.242H401.25V449.116Z" fill="#957979"/>
<path d="M304.875 224.879H337V257.005H304.875V224.879Z" fill="#AC9393"/>
<path d="M304.875 257.005H337V289.13H304.875V257.005Z" fill="#AC9393"/>
<path d="M401.25 352.739H433.375V384.865H401.25V352.739Z" fill="#BE8038"/>
<path d="M529.75 288.488H561.875V320.614H529.75V288.488Z" fill="#BE8038"/>
<path d="M240.625 32.1256H272.75V64.2512H240.625V32.1256Z" fill="#C68439"/>
<path d="M208.5 32.1256H240.625V64.2512H208.5V32.1256Z" fill="#CE8C41"/>
<path d="M594 545.493H626.125V577.618H594V545.493Z" fill="#BE8038"/>
<path d="M433.375 256.362H465.5V288.488H433.375V256.362Z" fill="#795E5E"/>
<path d="M529.75 192.111H561.875V224.237H529.75V192.111Z" fill="#BE8038"/>
<path d="M465.5 352.739H497.625V384.865H465.5V352.739Z" fill="#BE8038"/>
<path d="M561.875 256.362H594V288.488H561.875V256.362Z" fill="#AF6716"/>
<path d="M594 449.116H626.125V481.242H594V449.116Z" fill="#AF7028"/>
<path d="M304.875 32.1256H337V64.2512H304.875V32.1256Z" fill="#C68439"/>
<path d="M240.625 0H272.75V32.1256H240.625V0Z" fill="#BE8038"/>
<path d="M176.375 32.1256H208.5V64.2512H176.375V32.1256Z" fill="#CE8C41"/>
<path d="M594 641.87H626.125V673.995H594V641.87Z" fill="#BE8038"/>
<path d="M594 770.372H626.125V802.498H594V770.372Z" fill="#BE8038"/>
<path d="M658.25 706.121H690.375V738.246H658.25V706.121Z" fill="#AF7028"/>
<path d="M722.5 609.744H754.625V641.87H722.5V609.744Z" fill="#BE8038"/>
<path d="M626.125 834.623H658.25V866.749H626.125V834.623Z" fill="#BE8038"/>
<path d="M754.625 641.87H786.75V673.995H754.625V641.87Z" fill="#BE8038"/>
<path d="M690.375 513.367H722.5V545.493H690.375V513.367Z" fill="#BE8038"/>
<path d="M561.875 545.493H594V577.618H561.875V545.493Z" fill="#BE8038"/>
<path d="M561.875 384.865H594V416.99H561.875V384.865Z" fill="#BE8038"/>
<path d="M497.625 127.86H529.75V159.986H497.625V127.86Z" fill="#BE8038"/>
<path d="M433.375 352.739H465.5V384.865H433.375V352.739Z" fill="#BE8038"/>
<path d="M561.875 449.116H594V481.242H561.875V449.116Z" fill="#BE8038"/>
<path d="M561.875 288.488H594V320.614H561.875V288.488Z" fill="#BE8038"/>
<path d="M272.75 32.1256H304.875V64.2512H272.75V32.1256Z" fill="#BE8038"/>
<path d="M208.5 0H240.625V32.1256H208.5V0Z" fill="#BE8038"/>
<path d="M626.125 834.623H658.25V866.749H626.125V834.623Z" fill="#C68439"/>
<path d="M754.625 641.87H786.75V673.995H754.625V641.87Z" fill="#AF7028"/>
<path d="M690.375 513.367H722.5V545.493H690.375V513.367Z" fill="#CE8C41"/>
<path d="M561.875 545.493H594V577.618H561.875V545.493Z" fill="#C68439"/>
<path d="M561.875 384.865H594V416.99H561.875V384.865Z" fill="#BE8038"/>
<path d="M497.625 127.86H529.75V159.986H497.625V127.86Z" fill="#BE8038"/>
<path d="M304.875 128.502H337V160.628H304.875V128.502Z" fill="#957979"/>
<path d="M401.25 256.362H433.375V288.488H401.25V256.362Z" fill="#957979"/>
<path d="M497.625 192.111H529.75V224.237H497.625V192.111Z" fill="#C68439"/>
<path d="M337 224.237H369.125V256.362H337V224.237Z" fill="#795E5E"/>
<path d="M433.375 352.739H465.5V384.865H433.375V352.739Z" fill="#BE8038"/>
<path d="M497.625 256.362H529.75V288.488H497.625V256.362Z" fill="#CE8C41"/>
<path d="M561.875 449.116H594V481.242H561.875V449.116Z" fill="#C68439"/>
<path d="M561.875 288.488H594V320.614H561.875V288.488Z" fill="#AF6716"/>
<path d="M272.75 32.1256H304.875V64.2512H272.75V32.1256Z" fill="#C68439"/>
<path d="M208.5 0H240.625V32.1256H208.5V0Z" fill="#CE8C41"/>
<path d="M626.125 706.121H658.25V738.246H626.125V706.121Z" fill="#C68439"/>
<path d="M690.375 641.87H722.5V673.995H690.375V641.87Z" fill="#AF7028"/>
<path d="M754.625 481.242H786.75V513.367H754.625V481.242Z" fill="#AF7028"/>
<path d="M369.125 384.865H401.25V416.99H369.125V384.865Z" fill="#795E5E"/>
</svg>
